<svg id="Group_1112" data-name="Group 1112" xmlns="http://www.w3.org/2000/svg" xmlns:xlink="http://www.w3.org/1999/xlink" width="16.903" height="16.903" viewBox="0 0 16.903 16.903">
  <defs>
    <clipPath id="clip-path">
      <path id="Clip_1048" data-name="Clip 1048" d="M0,8.451A8.452,8.452,0,0,0,8.452,16.9h0A8.451,8.451,0,0,0,16.9,8.451h0A8.451,8.451,0,0,0,8.452,0h0A8.452,8.452,0,0,0,0,8.451Z" fill="none"/>
    </clipPath>
  </defs>
  <path id="Clip_1048-2" data-name="Clip 1048" d="M0,8.451A8.452,8.452,0,0,0,8.452,16.9h0A8.451,8.451,0,0,0,16.9,8.451h0A8.451,8.451,0,0,0,8.452,0h0A8.452,8.452,0,0,0,0,8.451Z" fill="none"/>
  <g id="Group_1112-2" data-name="Group 1112" clip-path="url(#clip-path)">
    <path id="Fill_1047" data-name="Fill 1047" d="M0,1.341H29.012V0H0Z" transform="translate(-6.054 -0.371)" fill="#b22234"/>
    <path id="Fill_1049" data-name="Fill 1049" d="M0,1.342H29.012V0H0Z" transform="translate(-6.054 15.932)" fill="#b22234"/>
    <path id="Fill_1050" data-name="Fill 1050" d="M0,1.425H29.012V0H0Z" transform="translate(-6.054 14.507)" fill="#fff"/>
    <path id="Fill_1051" data-name="Fill 1051" d="M0,1.383H29.012V0H0Z" transform="translate(-6.054 0.97)" fill="#fff"/>
    <path id="Fill_1052" data-name="Fill 1052" d="M0,1.319H29.012V0H0Z" transform="translate(-6.054 2.353)" fill="#b22234"/>
    <path id="Fill_1053" data-name="Fill 1053" d="M0,1.218H29.012V0H0Z" transform="translate(-6.054 13.289)" fill="#b22234"/>
    <path id="Fill_1054" data-name="Fill 1054" d="M0,1.446H29.012V0H0Z" transform="translate(-6.054 11.843)" fill="#fff"/>
    <path id="Fill_1055" data-name="Fill 1055" d="M0,1.445H29.012V0H0Z" transform="translate(-6.054 3.672)" fill="#fff"/>
    <path id="Fill_1056" data-name="Fill 1056" d="M0,1.383H29.012V0H0Z" transform="translate(-6.054 10.46)" fill="#b22234"/>
    <path id="Fill_1057" data-name="Fill 1057" d="M0,1.321H29.012V0H0Z" transform="translate(-6.054 5.116)" fill="#b22234"/>
    <path id="Fill_1058" data-name="Fill 1058" d="M0,1.363H29.012V0H0Z" transform="translate(-6.054 6.438)" fill="#fff"/>
    <path id="Fill_1059" data-name="Fill 1059" d="M0,1.383H29.012V0H0Z" transform="translate(-6.054 9.078)" fill="#fff"/>
    <path id="Fill_1060" data-name="Fill 1060" d="M0,1.276H29.012V0H0Z" transform="translate(-6.054 7.802)" fill="#b22234"/>
    <path id="Fill_1061" data-name="Fill 1061" d="M0,9.449H11.6V0H0Z" transform="translate(-6.054 -0.371)" fill="#3c3b6e"/>
    <path id="Fill_1062" data-name="Fill 1062" d="M0,.381H.339L.464,0,.571.381H.916L.64.637l.106.38L.464.762l-.276.255L.27.637Z" transform="translate(-5.708 -0.017)" fill="#fff"/>
    <path id="Fill_1063" data-name="Fill 1063" d="M0,.381H.338L.463,0,.569.381H.915L.639.637l.106.38L.463.762l-.275.255L.269.637Z" transform="translate(-3.71 -0.017)" fill="#fff"/>
    <path id="Fill_1064" data-name="Fill 1064" d="M0,.381H.339L.464,0,.571.381H.915L.639.637l.107.38L.464.762l-.275.255L.27.637Z" transform="translate(-1.714 -0.017)" fill="#fff"/>
    <path id="Fill_1065" data-name="Fill 1065" d="M0,.381H.338L.464,0,.57.381H.915L.639.637l.107.38L.464.762l-.276.255L.27.637Z" transform="translate(0.282 -0.017)" fill="#fff"/>
    <path id="Fill_1066" data-name="Fill 1066" d="M0,.381H.339L.463,0,.569.381H.915L.639.637l.106.38L.463.762l-.275.255L.269.637Z" transform="translate(2.279 -0.017)" fill="#fff"/>
    <path id="Fill_1067" data-name="Fill 1067" d="M0,.381H.339L.464,0,.571.381H.916L.639.637l.106.38L.464.762l-.275.255L.27.637Z" transform="translate(4.276 -0.017)" fill="#fff"/>
    <path id="Fill_1068" data-name="Fill 1068" d="M0,.381H.339L.464,0,.571.381H.916L.64.638l.106.381L.464.763l-.276.256L.27.638Z" transform="translate(-5.708 1.894)" fill="#fff"/>
    <path id="Fill_1069" data-name="Fill 1069" d="M0,.381H.338L.463,0,.569.381H.915L.639.638l.106.381L.463.763l-.275.256L.269.638Z" transform="translate(-3.71 1.894)" fill="#fff"/>
    <path id="Fill_1070" data-name="Fill 1070" d="M0,.381H.339L.464,0,.571.381H.915L.639.638l.107.381L.464.763l-.275.256L.27.638Z" transform="translate(-1.714 1.894)" fill="#fff"/>
    <path id="Fill_1071" data-name="Fill 1071" d="M0,.381H.338L.464,0,.57.381H.915L.639.638l.107.381L.464.763l-.276.256L.27.638Z" transform="translate(0.282 1.894)" fill="#fff"/>
    <path id="Fill_1072" data-name="Fill 1072" d="M0,.381H.339L.463,0,.569.381H.915L.639.638l.106.381L.463.763l-.275.256L.269.638Z" transform="translate(2.279 1.894)" fill="#fff"/>
    <path id="Fill_1073" data-name="Fill 1073" d="M0,.381H.339L.464,0,.571.381H.916L.639.638l.106.381L.464.763l-.275.256L.27.638Z" transform="translate(4.276 1.894)" fill="#fff"/>
    <path id="Fill_1074" data-name="Fill 1074" d="M0,.381H.339L.464,0,.571.381H.916L.64.636l.106.381L.464.762l-.276.255L.27.636Z" transform="translate(-5.708 3.742)" fill="#fff"/>
    <path id="Fill_1075" data-name="Fill 1075" d="M0,.381H.338L.463,0,.569.381H.915L.639.636l.106.381L.463.762l-.275.255L.269.636Z" transform="translate(-3.71 3.742)" fill="#fff"/>
    <path id="Fill_1076" data-name="Fill 1076" d="M0,.381H.339L.464,0,.571.381H.915L.639.636l.107.381L.464.762l-.275.255L.27.636Z" transform="translate(-1.714 3.742)" fill="#fff"/>
    <path id="Fill_1077" data-name="Fill 1077" d="M0,.381H.338L.464,0,.57.381H.915L.639.636l.107.381L.464.762l-.276.255L.27.636Z" transform="translate(0.282 3.742)" fill="#fff"/>
    <path id="Fill_1078" data-name="Fill 1078" d="M0,.381H.339L.463,0,.569.381H.915L.639.636l.106.381L.463.762l-.275.255L.269.636Z" transform="translate(2.279 3.742)" fill="#fff"/>
    <path id="Fill_1079" data-name="Fill 1079" d="M0,.381H.339L.464,0,.571.381H.916L.639.636l.106.381L.464.762l-.275.255L.27.636Z" transform="translate(4.276 3.742)" fill="#fff"/>
    <path id="Fill_1080" data-name="Fill 1080" d="M0,.381H.339L.464,0,.571.381H.916L.639.638l.107.381L.464.761l-.275.257L.27.638Z" transform="translate(-5.699 5.673)" fill="#fff"/>
    <path id="Fill_1081" data-name="Fill 1081" d="M0,.381H.339L.464,0,.57.381H.915L.639.638l.106.381L.464.761l-.276.257L.27.638Z" transform="translate(-3.702 5.673)" fill="#fff"/>
    <path id="Fill_1082" data-name="Fill 1082" d="M0,.381H.339L.464,0,.57.381H.915L.639.638l.106.381L.464.761l-.275.257L.27.638Z" transform="translate(-1.705 5.673)" fill="#fff"/>
    <path id="Fill_1083" data-name="Fill 1083" d="M0,.381H.338L.463,0,.569.381H.915L.639.638l.106.381L.463.761l-.275.257L.269.638Z" transform="translate(0.292 5.673)" fill="#fff"/>
    <path id="Fill_1084" data-name="Fill 1084" d="M0,.381H.338L.464,0,.569.381H.915L.638.638l.107.381L.464.761l-.276.257L.269.638Z" transform="translate(2.288 5.673)" fill="#fff"/>
    <path id="Fill_1085" data-name="Fill 1085" d="M0,.381H.338L.464,0,.571.381H.915L.639.638l.106.381L.464.761l-.276.257L.27.638Z" transform="translate(4.284 5.673)" fill="#fff"/>
    <path id="Fill_1086" data-name="Fill 1086" d="M0,.381H.339L.464,0,.571.381H.916L.639.636l.107.381L.464.763l-.275.255L.27.636Z" transform="translate(-5.699 7.543)" fill="#fff"/>
    <path id="Fill_1087" data-name="Fill 1087" d="M0,.381H.339L.464,0,.57.381H.915L.639.636l.106.381L.464.763l-.276.255L.27.636Z" transform="translate(-3.702 7.543)" fill="#fff"/>
    <path id="Fill_1088" data-name="Fill 1088" d="M0,.381H.339L.464,0,.57.381H.915L.639.636l.106.381L.464.763l-.275.255L.27.636Z" transform="translate(-1.705 7.543)" fill="#fff"/>
    <path id="Fill_1089" data-name="Fill 1089" d="M0,.381H.338L.463,0,.569.381H.915L.639.636l.106.381L.463.763l-.275.255L.269.636Z" transform="translate(0.292 7.543)" fill="#fff"/>
    <path id="Fill_1090" data-name="Fill 1090" d="M0,.381H.338L.464,0,.569.381H.915L.638.636l.107.381L.464.763l-.276.255L.269.636Z" transform="translate(2.288 7.543)" fill="#fff"/>
    <path id="Fill_1091" data-name="Fill 1091" d="M0,.381H.338L.464,0,.571.381H.915L.639.636l.106.381L.464.763l-.276.255L.27.636Z" transform="translate(4.284 7.543)" fill="#fff"/>
    <path id="Fill_1092" data-name="Fill 1092" d="M0,.382H.339L.464,0,.571.382H.915L.639.638l.107.38L.464.763l-.275.255L.27.638Z" transform="translate(-4.71 6.577)" fill="#fff"/>
    <path id="Fill_1093" data-name="Fill 1093" d="M0,.382H.339L.464,0,.57.382H.915L.639.638l.107.38L.464.763l-.275.255L.27.638Z" transform="translate(-2.714 6.577)" fill="#fff"/>
    <path id="Fill_1094" data-name="Fill 1094" d="M0,.382H.339L.464,0,.571.382H.916L.639.638l.106.38L.464.763l-.275.255L.27.638Z" transform="translate(-0.717 6.577)" fill="#fff"/>
    <path id="Fill_1095" data-name="Fill 1095" d="M0,.382H.339L.464,0,.571.382H.915L.639.638l.106.38L.464.763l-.275.255L.27.638Z" transform="translate(1.279 6.577)" fill="#fff"/>
    <path id="Fill_1096" data-name="Fill 1096" d="M0,.382H.339L.464,0,.57.382H.915L.64.638l.106.38L.464.763l-.276.255L.27.638Z" transform="translate(3.276 6.577)" fill="#fff"/>
    <path id="Fill_1097" data-name="Fill 1097" d="M0,.381H.339L.464,0,.571.381H.915L.639.637l.107.381L.464.763l-.275.256L.27.637Z" transform="translate(-4.71 4.709)" fill="#fff"/>
    <path id="Fill_1098" data-name="Fill 1098" d="M0,.381H.339L.464,0,.57.381H.915L.639.637l.107.381L.464.763l-.275.256L.27.637Z" transform="translate(-2.714 4.709)" fill="#fff"/>
    <path id="Fill_1099" data-name="Fill 1099" d="M0,.381H.339L.464,0,.571.381H.916L.639.637l.106.381L.464.763l-.275.256L.27.637Z" transform="translate(-0.717 4.709)" fill="#fff"/>
    <path id="Fill_1100" data-name="Fill 1100" d="M0,.381H.339L.464,0,.571.381H.915L.639.637l.106.381L.464.763l-.275.256L.27.637Z" transform="translate(1.279 4.709)" fill="#fff"/>
    <path id="Fill_1101" data-name="Fill 1101" d="M0,.381H.339L.464,0,.57.381H.915L.64.637l.106.381L.464.763l-.276.256L.27.637Z" transform="translate(3.276 4.709)" fill="#fff"/>
    <path id="Fill_1102" data-name="Fill 1102" d="M0,.382H.339L.464,0,.571.382H.915L.639.637l.106.381L.464.763l-.275.255L.269.637Z" transform="translate(-4.69 2.819)" fill="#fff"/>
    <path id="Fill_1103" data-name="Fill 1103" d="M0,.382H.339L.464,0,.57.382H.916L.639.637l.107.381L.464.763l-.275.255L.27.637Z" transform="translate(-2.693 2.819)" fill="#fff"/>
    <path id="Fill_1104" data-name="Fill 1104" d="M0,.382H.338L.464,0,.57.382H.915L.639.637l.106.381L.464.763l-.275.255L.27.637Z" transform="translate(-0.697 2.819)" fill="#fff"/>
    <path id="Fill_1105" data-name="Fill 1105" d="M0,.382H.338L.464,0,.57.382H.915L.64.637l.106.381L.464.763l-.275.255L.27.637Z" transform="translate(1.3 2.819)" fill="#fff"/>
    <path id="Fill_1106" data-name="Fill 1106" d="M0,.382H.339L.464,0,.571.382H.915L.639.637l.106.381L.464.763l-.276.255L.27.637Z" transform="translate(3.297 2.819)" fill="#fff"/>
    <path id="Fill_1107" data-name="Fill 1107" d="M0,.381H.339L.464,0,.571.381H.915L.639.637l.106.381L.464.761l-.275.256L.269.637Z" transform="translate(-4.69 0.951)" fill="#fff"/>
    <path id="Fill_1108" data-name="Fill 1108" d="M0,.381H.339L.464,0,.57.381H.916L.639.637l.107.381L.464.761l-.275.256L.27.637Z" transform="translate(-2.693 0.951)" fill="#fff"/>
    <path id="Fill_1109" data-name="Fill 1109" d="M0,.381H.338L.464,0,.57.381H.915L.639.637l.106.381L.464.761l-.275.256L.27.637Z" transform="translate(-0.697 0.951)" fill="#fff"/>
    <path id="Fill_1110" data-name="Fill 1110" d="M0,.381H.338L.464,0,.57.381H.915L.64.637l.106.381L.464.761l-.275.256L.27.637Z" transform="translate(1.3 0.951)" fill="#fff"/>
    <path id="Fill_1111" data-name="Fill 1111" d="M0,.381H.339L.464,0,.571.381H.915L.639.637l.106.381L.464.761l-.276.256L.27.637Z" transform="translate(3.297 0.951)" fill="#fff"/>
  </g>
</svg>
