<svg xmlns="http://www.w3.org/2000/svg" width="66.415" height="44" viewBox="0 0 66.415 44">
  <g id="map" transform="translate(-16 -97)">
    <path id="Path_33694" data-name="Path 33694" d="M289.035,359.226l-2.8-8.956-.007,0-30.426.011.006,8.934v.008Z" transform="translate(-206.62 -218.226)" fill="#bbb"/>
    <path id="Path_33695" data-name="Path 33695" d="M110,239.946l-2.6-8.314-14.736,0-1.133-9.258v-.007l-36.019-.14L51.27,234.636l15.735.1.057,14.169H79.575v-.008l-.006-8.934L110,239.949Z" transform="translate(-30.39 -107.903)" fill="#e5e7f0"/>
    <path id="Path_33696" data-name="Path 33696" d="M356.227,225.319h0l-2.564-3.228-11.4.159v.007l1.133,9.258,14.736,0Z" transform="translate(-281.117 -107.782)" fill="#bbb"/>
    <path id="Path_33697" data-name="Path 33697" d="M36.615,311.988l-15.735-.1L16,326.157H36.672Z" transform="translate(0 -185.157)" fill="#bbb"/>
    <path id="Path_33698" data-name="Path 33698" d="M400.389,176.053a4.835,4.835,0,1,1,8.933-2.78,4.961,4.961,0,0,1-1.017,3.3l-2.446,3.261-1.342,1.788-3.788-5.049a5.492,5.492,0,0,1-.339-.52Z" transform="translate(-330.612 -61.745)" fill="#fabf43"/>
    <path id="Path_33699" data-name="Path 33699" d="M281.009,303.542a4.827,4.827,0,0,1-.535,2.528,5.027,5.027,0,0,1-.482.772l-3.788,5.05-3.788-5.05a5.471,5.471,0,0,1-.469-.762,4.83,4.83,0,1,1,9.063-2.538Z" transform="translate(-220.053 -173.99)" fill="#fabf43"/>
    <ellipse id="Ellipse_50" data-name="Ellipse 50" cx="2.511" cy="2.504" rx="2.511" ry="2.504" transform="translate(53.62 127.216)" fill="#f2f3f8"/>
    <path id="Path_33700" data-name="Path 33700" d="M418.7,185.12a2.5,2.5,0,1,1-2.513,2.5A2.5,2.5,0,0,1,418.7,185.12Z" transform="translate(-344.818 -75.927)" fill="#fffefc"/>
    <path id="Path_33701" data-name="Path 33701" d="M290.718,317.884a2.5,2.5,0,0,1,1.128-2.089,2.5,2.5,0,1,0,0,4.179A2.5,2.5,0,0,1,290.718,317.884Z" transform="translate(-234.331 -188.163)" fill="#e5e7f0"/>
    <path id="Path_33702" data-name="Path 33702" d="M419.021,187.625a2.5,2.5,0,0,1,1.128-2.089,2.5,2.5,0,1,0,0,4.178A2.5,2.5,0,0,1,419.021,187.625Z" transform="translate(-344.882 -75.928)" fill="#e5e7f0"/>
    <path id="Path_33703" data-name="Path 33703" d="M169.141,312.6H164.99l.057,14.169H169.2Z" transform="translate(-128.375 -185.769)" fill="#989898"/>
    <path id="Path_33704" data-name="Path 33704" d="M51.27,234.636h4.151l4.244-12.406H55.514Z" transform="translate(-30.39 -107.903)" fill="#989898"/>
    <path id="Path_33705" data-name="Path 33705" d="M20.88,311.89,16,326.157h4.151l4.871-14.241Z" transform="translate(0 -185.157)" fill="#bbb"/>
    <path id="Path_33706" data-name="Path 33706" d="M97.6,248.628a5.976,5.976,0,0,1-.836,3.42,6.2,6.2,0,0,1-.408.613l-4.63,6.171L87.1,252.662l-.116-.163a6.114,6.114,0,0,1-1.126-3.87,5.878,5.878,0,0,1,11.747,0Z" transform="translate(-60.184 -125.79)" fill="#fabf43"/>
    <path id="Path_33707" data-name="Path 33707" d="M108.849,263.1a3.061,3.061,0,1,1-3.069,3.061A3.061,3.061,0,0,1,108.849,263.1Z" transform="translate(-77.358 -143.118)" fill="#fffefc"/>
    <path id="Path_33708" data-name="Path 33708" d="M108.621,266.161a3.06,3.06,0,0,1,1.686-2.732,3.061,3.061,0,1,0,0,5.465A3.061,3.061,0,0,1,108.621,266.161Z" transform="translate(-77.431 -143.118)" fill="#f2f3f8"/>
    <path id="Path_33709" data-name="Path 33709" d="M217.855,104.831a8.167,8.167,0,0,0-16.32,0,8.567,8.567,0,0,0,1.727,5.6l6.434,8.574,6.433-8.574A8.426,8.426,0,0,0,217.855,104.831Z" transform="translate(-159.849)" fill="#ffad12"/>
    <path id="Path_33710" data-name="Path 33710" d="M230.445,121.85a4.791,4.791,0,1,1-4.805,4.79A4.791,4.791,0,0,1,230.445,121.85Z" transform="translate(-180.633 -21.412)" fill="#fffefc"/>
    <path id="Path_33711" data-name="Path 33711" d="M228.531,126.638a4.794,4.794,0,0,1,3.422-4.588,4.791,4.791,0,1,0,0,9.177A4.794,4.794,0,0,1,228.531,126.638Z" transform="translate(-180.757 -21.41)" fill="#e5e7f0"/>
  </g>
</svg>
